<svg width="36" height="36" viewBox="0 0 36 36" fill="none" xmlns="http://www.w3.org/2000/svg">
<path fill-rule="evenodd" clip-rule="evenodd" d="M32 36H4C1.791 36 0 34.209 0 32V4C0 1.791 1.791 0 4 0H32C34.209 0 36 1.791 36 4V32C36 34.209 34.209 36 32 36Z" fill="#212121"/>
<path fill-rule="evenodd" clip-rule="evenodd" d="M28.257 28H21.82L7.829 8H14.266L28.257 28ZM22.587 26.304H25.15L13.499 9.696H10.936L22.587 26.304Z" fill="white"/>
<path fill-rule="evenodd" clip-rule="evenodd" d="M9.866 28L17.069 19.656L16.127 18.407L7.823 28H9.866Z" fill="white"/>
<path fill-rule="evenodd" clip-rule="evenodd" d="M18.45 15.721L19.355 17.01L27.136 8H25.136L18.45 15.721Z" fill="white"/>
</svg>
